# xmcd
#
# Track frame offsets: 
#        150
#        16406
#        35018
#        48499
#        59683
#        74441
#        88134
#        101495
#        114958
#        128197
#        152113
#        167226
#        195263
#        214169
#        225919
#        238301
#        251640
#        266133
#
# Disc length: 3737 seconds
#
# Revision: 1
# Processed by: cddbd v1.5.2PL0 Copyright (c) Steve Scherf et al.
# Submitted via: ExactAudioCopyFreeDBPlugin 1.0
#
DISCID=030e9712
DTITLE=Various Artist - Jazz - CD3
DYEAR=2005
DGENRE=Jazz
TTITLE0=Nina Simone - My Baby Just Cares For Me
TTITLE1=Miles Davis - Conception
TTITLE2=Sara vaughan - It Might As Well Be Spring
TTITLE3=Dinah Washington - Wath A Difference A Day Makes
TTITLE4=Dizzy Gillespie - Salt Peanuts
TTITLE5=Earl Hines - Rhythm Rapsody
TTITLE6=Fletcher Henderson - Fidgety Feet
TTITLE7=Quincy Jones - Bossa NOva Usa
TTITLE8=Ella Fitzgerald - Baby, Won't You Say You Love Me?
TTITLE9=Thelonious Monk - Blue Monk
TTITLE10=Woody Herman - Panacea
TTITLE11=Sonny Stitt - Just Friends
TTITLE12=Red Norvo - Seven Come Eleven
TTITLE13=Art tatum - Moonglow
TTITLE14=Lena Horne - Can't Help Loving That man
TTITLE15=Charly Parcker - Ornithology
TTITLE16=Artie Shaw - Begin The Beguine
TTITLE17=Benny Goodman - Jersey Bounce
EXTD=YEAR: 2005
EXTT0=
EXTT1=
EXTT2=
EXTT3=
EXTT4=
EXTT5=
EXTT6=
EXTT7=
EXTT8=
EXTT9=
EXTT10=
EXTT11=
EXTT12=
EXTT13=
EXTT14=
EXTT15=
EXTT16=
EXTT17=
PLAYORDER=
